g Body_01
v 0.5 -0.4 0
v 0.5 0.4 0
v 0.5 0.4 2
v 0.5 -0.4 2
v -0.5 0.4 2
v -0.5 -0.4 2
v -0.5 0.4 0
v -0.5 -0.4 0
v 0.45 -0.4 1.95
v 0.45 -0.4 0.05
v -0.45 -0.4 1.95
v -0.45 -0.4 0.05
v 0.45 0.3 1.95
v -0.45 0.3 1.95
v 0.45 -0.299079 0.05
v -0.45 -0.299079 0.05
v -0.45 0.3 0.15
v 0.45 0.3 0.15
v -0.45 -0.2 0.15
v 0.45 -0.2 0.15
v 0.45 -0.299079 0.1
v 0.45 -0.2 0.1
v -0.45 -0.299079 0.1
v -0.45 -0.2 0.1
vn 1 0 0
vn -0 0 1
vn -1 0 0
vn -0 -0 -1
vn -0 1 -0
vn 0 -1 0
vn 0 0 -1
vn 4.62593e-17 -0 1
vn -0 -1 -0
vn -1 0 0
vn 1 0 0
vn -0 -1 -0
vn 0 0 1
vt 1 0
vt 1 0.8
vt -1 0.8
vt -1 0
vt 0.5 0
vt 0.5 0.8
vt -0.5 0.8
vt -0.5 0
vt 1 0
vt 1 0.8
vt -1 0.8
vt -1 0
vt 0.5 0
vt 0.5 0.8
vt -0.5 0.8
vt -0.5 0
vt -0.5 2
vt 0.5 2
vt 0.5 0
vt -0.5 0
vt 0.5 2
vt 0.45 1.95
vt 0.45 0.05
vt -0.5 2
vt -0.45 1.95
vt -0.5 0
vt -0.45 0.05
vt 0.5 0
vt -0.45 0.4
vt -0.45 -0.3
vt 0.45 -0.3
vt 0.45 0.4
vt 0.45 -0.3
vt 0.45 -0.199079
vt -0.45 -0.199079
vt -0.45 -0.3
vt -0.45 1.95
vt -0.45 0.15
vt 0.45 0.15
vt 0.45 1.95
vt 0.45 0.3
vt -0.45 0.3
vt -0.45 -0.2
vt 0.45 -0.2
vt -0.9 -0.199079
vt 0.95 -0.3
vt -0.85 -0.1
vt 0.95 0.4
vt -0.85 0.4
vt -0.95 -0.3
vt -0.9 -0.1
vt -0.95 -0.199079
vt -0.95 0.4
vt -0.95 -0.3
vt 0.85 -0.1
vt 0.9 -0.199079
vt 0.9 -0.1
vt 0.95 -0.3
vt 0.95 -0.199079
vt 0.85 0.4
vt 0 0.45
vt 0 -0.45
vt -0.05 -0.45
vt -0.05 0.45
vt 0 -0.45
vt -0.05 -0.45
vt -0.05 0.45
vt 0 0.45
vt 0.45 -0.299079
vt 0.45 -0.2
vt -0.45 -0.2
vt -0.45 -0.299079
f 1/1/1 2/2/1 3/3/1
f 3/3/1 4/4/1 1/1/1
f 4/5/2 3/6/2 5/7/2
f 5/7/2 6/8/2 4/5/2
f 6/9/3 5/10/3 7/11/3
f 7/11/3 8/12/3 6/9/3
f 8/13/4 7/14/4 2/15/4
f 2/15/4 1/16/4 8/13/4
f 5/17/5 3/18/5 2/19/5
f 2/19/5 7/20/5 5/17/5
f 4/21/6 9/22/6 10/23/6
f 4/21/6 6/24/6 11/25/6
f 6/24/6 8/26/6 12/27/6
f 8/26/6 1/28/6 10/23/6
f 11/25/6 9/22/6 4/21/6
f 10/23/6 12/27/6 8/26/6
f 12/27/6 11/25/6 6/24/6
f 10/23/6 1/28/6 4/21/6
f 13/29/7 9/30/7 11/31/7
f 11/31/7 14/32/7 13/29/7
f 10/33/8 15/34/8 16/35/8
f 16/35/8 12/36/8 10/33/8
f 14/37/9 17/38/9 18/39/9
f 18/39/9 13/40/9 14/37/9
f 18/41/8 17/42/8 19/43/8
f 19/43/8 20/44/8 18/41/8
f 21/45/10 9/46/10 20/47/10
f 13/48/10 18/49/10 20/47/10
f 10/50/10 9/46/10 21/45/10
f 20/47/10 9/46/10 13/48/10
f 20/47/10 22/51/10 21/45/10
f 21/45/10 15/52/10 10/50/10
f 14/53/11 11/54/11 19/55/11
f 23/56/11 24/57/11 19/55/11
f 19/55/11 11/54/11 23/56/11
f 12/58/11 16/59/11 23/56/11
f 23/56/11 11/54/11 12/58/11
f 19/55/11 17/60/11 14/53/11
f 20/61/12 19/62/12 24/63/12
f 24/63/12 22/64/12 20/61/12
f 23/65/12 16/66/12 15/67/12
f 15/67/12 21/68/12 23/65/12
f 21/69/13 22/70/13 24/71/13
f 24/71/13 23/72/13 21/69/13
